<?xml version="1.0" encoding="utf-8"?>
<!-- Generator: Adobe Illustrator 19.0.1, SVG Export Plug-In . SVG Version: 6.00 Build 0)  -->
<svg version="1.1" id="Layer_1" xmlns="http://www.w3.org/2000/svg" xmlns:xlink="http://www.w3.org/1999/xlink" x="0px" y="0px"
	 viewBox="0 0 111.809 111.98" enable-background="new 0 0 111.809 111.98" xml:space="preserve">
<path fill="none" stroke="#000000" stroke-linecap="round" stroke-linejoin="round" stroke-miterlimit="10" d="M45.05,97.051
	c0,6.471-0.274,10.718-1.554,12.26c-1.747,2.103-4.471,0.668-4.471,0.668"/>
<path fill="none" stroke="#000000" stroke-linecap="round" stroke-linejoin="round" stroke-miterlimit="10" d="M62.716,97.051
	c0,6.471-0.417,11.957,0.846,12.566c1.744,0.84,3.471,0.359,3.471,0.359"/>
<g>
	<path fill="none" stroke="#000000" stroke-linecap="round" stroke-linejoin="round" stroke-miterlimit="10" d="M107.889,56.883
		c-2.764,3.42-5.884,3.784-7.735,3.439c-1.953-0.363-4.04-1.384-5.985-5.989"/>
	<path fill="none" stroke="#000000" stroke-linecap="round" stroke-linejoin="round" stroke-miterlimit="10" d="M107.814,53.964
		c-0.466,2.504,0.317,2.752,0.317,2.752s1.791,0.953,3.346-0.725"/>
</g>
<g>
	<path fill="none" stroke="#000000" stroke-linecap="round" stroke-linejoin="round" stroke-miterlimit="10" d="M-3.044,54.677
		c2.095,3.868,5.095,4.794,6.977,4.794c1.987,0,4.223-0.622,6.979-4.794"/>
	<path fill="none" stroke="#000000" stroke-linecap="round" stroke-linejoin="round" stroke-miterlimit="10" d="M-2.436,51.821
		c0,2.547-0.815,2.648-0.815,2.648s-1.936,0.611-3.158-1.324"/>
</g>
<path fill="#F58355" d="M104.709,92.079c0,1.915-1.641,3.467-3.667,3.467H3.666C1.642,95.545,0,93.993,0,92.079V0
	c0-1.914,1.642-3.467,3.666-3.467h97.376c2.026,0,3.667,1.553,3.667,3.467V92.079z"/>
<rect x="0" y="31.48" fill="#FFE0AA" width="104.709" height="36.187"/>
<path fill="#F48992" d="M0,67.498v28.33c0,1.739,1.642,3.146,3.666,3.146h97.375c2.026,0,3.668-1.408,3.668-3.146v-28.33H0z"/>
<path fill="#FFFFFF" stroke="#000000" stroke-linecap="round" stroke-linejoin="round" stroke-miterlimit="10" d="M24.603,38.642
	c10.149,3.903,21.077,7.807,21.077,7.807s-14.832,9.367-21.077,4.685C18.359,46.448,24.603,38.642,24.603,38.642z"/>
<path fill="#FFFFFF" stroke="#000000" stroke-linecap="round" stroke-linejoin="round" stroke-miterlimit="10" d="M82.001,37.784
	c-11.41,4.388-23.697,8.777-23.697,8.777s16.675,10.533,23.697,5.266C89.022,46.561,82.001,37.784,82.001,37.784z"/>
<circle cx="31.349" cy="43.965" r="3.016"/>
<circle cx="75.634" cy="43.539" r="3.626"/>
<circle fill="#F382A4" cx="10.01" cy="49.466" r="5.501"/>
<circle fill="#F382A4" cx="94.66" cy="49.466" r="5.5"/>
<path fill="#D11D63" stroke="#000000" stroke-linecap="round" stroke-linejoin="round" stroke-miterlimit="10" d="M44.965,51.735
	c0,0,0.978,2.502,6.395,2.502c5.417,0,6.949-2.502,6.949-2.502s-1.946,7.453-6.671,7.453C46.91,59.188,44.965,51.735,44.965,51.735z
	"/>
<rect id="_x3C_Slice_x3E__1_" x="-7.191" y="-6.02" fill="none" width="119" height="118"/>
</svg>
