<?xml version="1.0" encoding="utf-8"?>
<!-- Generator: Adobe Illustrator 19.0.1, SVG Export Plug-In . SVG Version: 6.00 Build 0)  -->
<svg version="1.1" id="Layer_1" xmlns="http://www.w3.org/2000/svg" xmlns:xlink="http://www.w3.org/1999/xlink" x="0px" y="0px"
	 viewBox="-346.191 247.553 119 115.447" enable-background="new -346.191 247.553 119 115.447" xml:space="preserve">
<path fill="none" stroke="#000000" stroke-linecap="round" stroke-linejoin="round" stroke-miterlimit="10" d="M-293.95,348.071
	c0,6.471-0.274,10.718-1.554,12.26c-1.747,2.103-4.471,0.668-4.471,0.668"/>
<path fill="none" stroke="#000000" stroke-linecap="round" stroke-linejoin="round" stroke-miterlimit="10" d="M-276.284,348.071
	c0,6.471-0.417,11.957,0.846,12.566c1.744,0.84,3.471,0.359,3.471,0.359"/>
<g>
	<path fill="none" stroke="#000000" stroke-linecap="round" stroke-linejoin="round" stroke-miterlimit="10" d="M-231.111,307.903
		c-2.764,3.42-5.884,3.784-7.735,3.439c-1.953-0.363-4.04-1.384-5.985-5.989"/>
	<path fill="none" stroke="#000000" stroke-linecap="round" stroke-linejoin="round" stroke-miterlimit="10" d="M-231.186,304.984
		c-0.466,2.504,0.317,2.752,0.317,2.752s1.791,0.953,3.346-0.725"/>
</g>
<g>
	<path fill="none" stroke="#000000" stroke-linecap="round" stroke-linejoin="round" stroke-miterlimit="10" d="M-342.044,305.697
		c2.095,3.868,5.095,4.794,6.977,4.794c1.987,0,4.223-0.622,6.979-4.794"/>
	<path fill="none" stroke="#000000" stroke-linecap="round" stroke-linejoin="round" stroke-miterlimit="10" d="M-341.436,302.841
		c0,2.547-0.815,2.648-0.815,2.648s-1.936,0.611-3.158-1.324"/>
</g>
<path fill="#F58355" d="M-234.291,343.099c0,1.915-1.641,3.467-3.667,3.467h-97.376c-2.024-0.001-3.666-1.553-3.666-3.467V251.02
	c0-1.914,1.642-3.467,3.666-3.467h97.376c2.026,0,3.667,1.553,3.667,3.467V343.099z"/>
<rect x="-339" y="282.5" fill="#FFE0AA" width="104.709" height="36.187"/>
<path fill="#F48992" d="M-339,318.518v28.33c0,1.739,1.642,3.146,3.666,3.146h97.375c2.026,0,3.668-1.408,3.668-3.146v-28.33H-339z"
	/>
<path fill="#FFFFFF" stroke="#000000" stroke-width="2" stroke-linecap="round" stroke-linejoin="round" stroke-miterlimit="10" d="
	M-314.397,289.662c10.149,3.903,21.077,7.807,21.077,7.807s-14.832,9.367-21.077,4.685
	C-320.641,297.468-314.397,289.662-314.397,289.662z"/>
<path fill="#FFFFFF" stroke="#000000" stroke-width="2" stroke-linecap="round" stroke-linejoin="round" stroke-miterlimit="10" d="
	M-256.999,288.804c-11.41,4.388-23.697,8.777-23.697,8.777s16.675,10.533,23.697,5.266
	C-249.978,297.581-256.999,288.804-256.999,288.804z"/>
<circle cx="-307.651" cy="294.985" r="3.016"/>
<circle cx="-263.366" cy="294.559" r="3.626"/>
<circle fill="#F382A4" cx="-328.99" cy="300.486" r="5.501"/>
<circle fill="#F382A4" cx="-244.34" cy="300.486" r="5.5"/>
<path fill="#D11D63" stroke="#000000" stroke-linecap="round" stroke-linejoin="round" stroke-miterlimit="10" d="M-294.035,302.755
	c0,0,0.978,2.502,6.395,2.502s6.949-2.502,6.949-2.502s-1.946,7.453-6.671,7.453C-292.09,310.208-294.035,302.755-294.035,302.755z"
	/>
<rect id="_x3C_Slice_x3E__1_" x="-346.191" y="245" fill="none" width="119" height="118"/>
</svg>
