<?xml version="1.0" encoding="utf-8"?>
<!-- Generator: Adobe Illustrator 19.0.1, SVG Export Plug-In . SVG Version: 6.00 Build 0)  -->
<svg version="1.1" id="Layer_1" xmlns="http://www.w3.org/2000/svg" xmlns:xlink="http://www.w3.org/1999/xlink" x="0px" y="0px"
	 viewBox="0 0 119 118" style="enable-background:new 0 0 119 118;" xml:space="preserve">
<style type="text/css">
	.st0{fill:none;stroke:#000000;stroke-linecap:round;stroke-linejoin:round;stroke-miterlimit:10;}
	.st1{fill:#F58355;}
	.st2{fill:#FFE0AA;}
	.st3{fill:#F48992;}
	.st4{fill:#FFFFFF;stroke:#000000;stroke-linecap:round;stroke-linejoin:round;stroke-miterlimit:10;}
	.st5{fill:#F382A4;}
	.st6{fill:#D11D63;stroke:#000000;stroke-linecap:round;stroke-linejoin:round;stroke-miterlimit:10;}
	.st7{fill:none;}
</style>
<path class="st0" d="M52.2,103.1c0,6.5-0.3,10.7-1.6,12.3c-1.7,2.1-4.5,0.7-4.5,0.7"/>
<path class="st0" d="M69.9,103.1c0,6.5-0.4,12,0.8,12.6c1.7,0.8,3.5,0.4,3.5,0.4"/>
<g>
	<path class="st0" d="M115.1,62.9c-2.8,3.4-5.9,3.8-7.7,3.4c-2-0.4-4-1.4-6-6"/>
	<path class="st0" d="M115,60c-0.5,2.5,0.3,2.8,0.3,2.8s1.8,1,3.3-0.7"/>
</g>
<g>
	<path class="st0" d="M4.1,60.7c2.1,3.9,5.1,4.8,7,4.8c2,0,4.2-0.6,7-4.8"/>
	<path class="st0" d="M4.8,57.8c0,2.5-0.8,2.6-0.8,2.6S2,61.1,0.8,59.2"/>
</g>
<path class="st1" d="M111.9,98.1c0,1.9-1.6,3.5-3.7,3.5H10.9c-2,0-3.7-1.6-3.7-3.5V6c0-1.9,1.6-3.5,3.7-3.5h97.4
	c2,0,3.7,1.6,3.7,3.5V98.1z"/>
<rect x="7.2" y="37.5" class="st2" width="104.7" height="36.2"/>
<path class="st3" d="M7.2,73.5v28.3c0,1.7,1.6,3.1,3.7,3.1h97.4c2,0,3.7-1.4,3.7-3.1V73.5H7.2z"/>
<path class="st4" d="M31.8,44.7c10.1,3.9,21.1,7.8,21.1,7.8S38,61.8,31.8,57.2C25.6,52.5,31.8,44.7,31.8,44.7z"/>
<path class="st4" d="M89.2,43.8c-11.4,4.4-23.7,8.8-23.7,8.8s16.7,10.5,23.7,5.3C96.2,52.6,89.2,43.8,89.2,43.8z"/>
<circle cx="38.5" cy="50" r="3"/>
<circle cx="82.8" cy="49.6" r="3.6"/>
<circle class="st5" cx="17.2" cy="55.5" r="5.5"/>
<circle class="st5" cx="101.9" cy="55.5" r="5.5"/>
<path class="st6" d="M52.2,57.8c0,0,1,2.5,6.4,2.5c5.4,0,6.9-2.5,6.9-2.5s-1.9,7.5-6.7,7.5C54.1,65.2,52.2,57.8,52.2,57.8z"/>
<rect id="_x3C_Slice_x3E__1_" class="st7" width="119" height="118"/>
</svg>
